<?xml version="1.0" encoding="utf-8"?>
<!-- Generator: Adobe Illustrator 19.2.0, SVG Export Plug-In . SVG Version: 6.00 Build 0)  -->
<svg version="1.0" id="Layer_1" xmlns="http://www.w3.org/2000/svg" xmlns:xlink="http://www.w3.org/1999/xlink" x="0px" y="0px"
	 width="1400px" height="980px" viewBox="0 0 1400 980" enable-background="new 0 0 1400 980" xml:space="preserve">
<rect fill="#FFEAD7" width="1400" height="980"/>
<g opacity="0.2">
	<path fill="#223A59" d="M991.7,704.6l-13.3-5.7l-16.6-35.7c-1.8-3.9-5.7-6.4-10-6.4h-49.1c-6.1,0-11,4.9-11,11v38.3l-99.7-95.4
		h-22.4c-1.7,0-3,1.2-3.3,2.6c-0.2,0.5-0.3,1.1-0.3,1.7v34.8c0,2.4,1.9,4.3,4.3,4.3c4.8,0,8.7,3.9,8.7,8.7c0,4.8-3.9,8.7-8.7,8.7
		c-4.8,0-8.7-3.9-8.7-8.7c0-2.4-1.9-4.3-4.3-4.3s-4.3,1.9-4.3,4.3c0,9.6,7.8,17.4,17.4,17.4c9.6,0,17.4-7.8,17.4-17.4
		c0-8.1-5.5-14.9-13-16.8v-21.8L879,732.4H754.8c-4,0-7.3,3.3-7.3,7.3v29.4c0,4,3.3,7.3,7.3,7.3l17.5,0c0,0,0,0,0,0
		c0,14.4,11.7,26.1,26.1,26.1s26.1-11.7,26.1-26.1c0,0,0,0,0,0l91.3,0c0,0,0,0,0,0c0,14.4,11.7,26.1,26.1,26.1
		c14.4,0,26.1-11.7,26.1-26.1c0,0,0,0,0,0l16.3,0c7.8,0,14.1-6.3,14.1-14.1l0-23.1l0,0v0l0-24.5
		C998.4,710.3,995.8,706.4,991.7,704.6z"/>
	<path fill="#223A59" d="M677.7,704.6l-13.3-5.7l-16.6-35.7c-1.8-3.9-5.7-6.4-10-6.4h-49.1c-6.1,0-11,4.9-11,11v52.7l-20.7-38
		c-0.8-1.4-2.3-2.2-3.8-2.2l7-24.5c1-3.7,0-7.6-2.7-10.3l-20-20c-1.1-1.1-2.5-2-4.1-2.5l-19.6-6.5l0,0l-8.2-2.7l0,0l-5.3-1.8
		c-2.3-0.8-4.9-0.9-7.3-0.2l-26.5,7.2l0,0l14.1-24.6c1.4-2.4-0.4-5.3-3.1-5.3h-38.2c-2,0-3.6,1.6-3.6,3.6v35.6v39.1v31.4h0v33.7
		c-1.3,0.2-2.4,1.4-2.4,2.8v33.9c0,4,3.3,7.3,7.3,7.3l17.5,0c0,0,0,0,0,0c0,14.4,11.7,26.1,26.1,26.1c14.4,0,26.1-11.7,26.1-26.1
		c0,0,0,0,0,0l91.3,0c0,0,0,0,0,0c0,14.4,11.7,26.1,26.1,26.1s26.1-11.7,26.1-26.1c0,0,0,0,0,0l16.3,0c7.8,0,14.1-6.3,14.1-14.1
		l0-47.6C684.4,710.3,681.7,706.4,677.7,704.6z M537.5,711.5c4.2-0.5,7.8-3.4,8.9-7.5l4.2-14.9l23.6,43.3h-73.3v-18.9c0,0,0,0,0,0
		l3.1,1.1c0.8,0.3,1.6,0.4,2.5,0.3L537.5,711.5z M488.8,676C488.8,676,488.8,676,488.8,676c-0.2,0-0.4,0-0.6,0c0,0,0,0,0,0
		C488.4,676,488.6,676,488.8,676z M501,687.7c0-0.2,0-0.3-0.1-0.4C500.9,687.4,501,687.5,501,687.7z M500.8,686.4
		c0-0.2-0.1-0.3-0.1-0.5C500.7,686,500.7,686.2,500.8,686.4z M500.4,685.1c-0.1-0.2-0.1-0.4-0.2-0.5
		C500.3,684.7,500.4,684.9,500.4,685.1z M500,683.9c-0.1-0.2-0.2-0.3-0.2-0.5C499.8,683.5,499.9,683.7,500,683.9z M499.4,682.7
		c-0.1-0.2-0.2-0.3-0.3-0.5C499.2,682.4,499.3,682.5,499.4,682.7z M498.7,681.6c-0.1-0.2-0.2-0.3-0.4-0.5
		C498.5,681.3,498.6,681.4,498.7,681.6z M497.9,680.6c-0.1-0.1-0.3-0.3-0.4-0.4C497.7,680.3,497.8,680.4,497.9,680.6z M497,679.7
		c-0.1-0.1-0.3-0.3-0.4-0.4C496.8,679.4,496.9,679.5,497,679.7z M492.7,676.9c-0.1,0-0.2-0.1-0.4-0.1l0,0
		C492.5,676.8,492.6,676.8,492.7,676.9z M496.1,678.8c-0.2-0.1-0.3-0.2-0.5-0.4C495.8,678.6,495.9,678.7,496.1,678.8z M495,678.1
		c-0.2-0.1-0.3-0.2-0.5-0.3C494.7,677.9,494.9,678,495,678.1z M493.9,677.4c-0.2-0.1-0.4-0.2-0.5-0.3
		C493.5,677.2,493.7,677.3,493.9,677.4z M487.4,676c-0.2,0-0.4,0-0.5,0C487.1,676,487.2,676,487.4,676
		C487.4,676,487.4,676,487.4,676z M482.2,677.4c0,0,0.1,0,0.1-0.1C482.3,677.4,482.2,677.4,482.2,677.4z M483.2,676.9
		c0.1-0.1,0.3-0.1,0.5-0.2C483.5,676.8,483.4,676.9,483.2,676.9z M475,704v28.4h-21.7v-33.7v-7.1v0l2.1,2.9c1.5,2.1,3.5,3.6,5.9,4.5
		L475,704C475,704,475,704,475,704z"/>
	<path fill="#223A59" d="M110.4,692.2l-16.7,40.1h69.6l-16.7-40.1c-0.6-1.4-1.3-2.7-2.2-3.9l42.8-60.5c8.7-1,15.5-8.3,15.5-17.3
		c0-0.6,0-1.1-0.1-1.6c0.1,0.5,0.1,1.1,0.1,1.6c0,1.2,0.2,3.2,0,4.3l42.4-4.2c4.5,7.7,12.9,12.9,22.5,12.9c5.7,0,11.1-1.8,15.6-5.2
		c1.9-1.4,2.3-4.2,0.9-6.1c-1.4-1.9-4.2-2.3-6.1-0.9c-3,2.3-6.6,3.5-10.4,3.5c-9.6,0-17.4-7.8-17.4-17.4c0-9.6,7.8-17.4,17.4-17.4
		c3.8,0,7.4,1.2,10.4,3.5c1.9,1.4,4.7,1.1,6.1-0.9c1.4-1.9,1.1-4.6-0.9-6.1c-4.5-3.4-10-5.2-15.7-5.2c-9.8,0-18.3,5.4-22.8,13.4
		l-48.3,12.5c-3-2.6-7-4.1-11.2-4.1c-9.6,0-17.4,7.8-17.4,17.4c0,0.6,0,1.1,0.1,1.7L115.4,685l0,0.1
		C113.3,687.1,111.6,689.5,110.4,692.2z M126.3,680.3c0.2,0,0.3,0,0.5-0.1C126.6,680.3,126.5,680.3,126.3,680.3z M124.6,680.6
		c0.2,0,0.3-0.1,0.5-0.1C124.9,680.5,124.8,680.6,124.6,680.6z M131.7,680.5c0.2,0,0.4,0.1,0.6,0.1
		C132.1,680.5,131.9,680.5,131.7,680.5z M133.1,680.8c0.1,0,0.2,0,0.2,0.1C133.2,680.8,133.2,680.8,133.1,680.8z M185.3,628
		L185.3,628C185.3,628,185.3,628,185.3,628L185.3,628z M202.4,607.4c0.1,0.5,0.2,0.9,0.2,1.4C202.5,608.3,202.4,607.9,202.4,607.4z
		 M202,605.8c0.1,0.3,0.2,0.7,0.3,1.1C202.2,606.5,202.1,606.2,202,605.8z M185.3,628c-0.6,0-1.2,0-1.7-0.1
		C184.1,628,184.7,628,185.3,628z M182.9,627.8c-0.3,0-0.6-0.1-1-0.1C182.2,627.8,182.5,627.8,182.9,627.8z M181,627.5
		c-0.2-0.1-0.4-0.1-0.7-0.2C180.5,627.4,180.8,627.4,181,627.5z M179.2,626.9c-0.1,0-0.3-0.1-0.4-0.1
		C178.9,626.8,179.1,626.9,179.2,626.9z M177.5,626.2c0,0-0.1,0-0.1-0.1C177.4,626.1,177.5,626.2,177.5,626.2z M129.8,680.2
		c-0.4,0-0.9-0.1-1.3-0.1C128.9,680.2,129.4,680.2,129.8,680.2z M131.1,680.4c-0.3,0-0.5-0.1-0.8-0.1
		C130.6,680.3,130.8,680.3,131.1,680.4z M117,684c-0.1,0-0.1,0.1-0.2,0.1C116.8,684,116.9,684,117,684z M123.4,680.9
		c-0.1,0-0.3,0.1-0.4,0.1C123.1,680.9,123.3,680.9,123.4,680.9z M119.9,682.2c-0.1,0-0.1,0.1-0.2,0.1
		C119.8,682.3,119.8,682.2,119.9,682.2z M118.4,683c-0.1,0.1-0.2,0.1-0.3,0.2C118.2,683.1,118.3,683,118.4,683z"/>
	<path fill="#223A59" d="M312.7,704.6l-13.3-5.7l-16.6-35.7c-1.8-3.9-5.7-6.4-10-6.4h-49.1c-6.1,0-11,4.9-11,11v64.5H71.3
		c-1.6,0-2.8,1.3-2.8,2.8v33.9c0,4,3.3,7.3,7.3,7.3l17.5,0c0,0,0,0,0,0c0,14.4,11.7,26.1,26.1,26.1s26.1-11.7,26.1-26.1c0,0,0,0,0,0
		l91.3,0c0,0,0,0,0,0c0,14.4,11.7,26.1,26.1,26.1c14.4,0,26.1-11.7,26.1-26.1c0,0,0,0,0,0l16.3,0c7.8,0,14.1-6.3,14.1-14.1l0-47.6
		C319.4,710.3,316.8,706.4,312.7,704.6z"/>
	<path fill="#223A59" d="M1093.5,376.5c0,14.4,11.7,26.1,26.1,26.1c14.4,0,26.1-11.7,26.1-26.1c0,0,0,0,0,0l91.3,0c0,0,0,0,0,0
		c0,14.4,11.7,26.1,26.1,26.1c14.4,0,26.1-11.7,26.1-26.1c0,0,0,0,0,0l16.3,0c7.8,0,14.1-6.3,14.1-14.1l0-47.6
		c0-4.4-2.6-8.4-6.7-10.1l-13.3-5.7l-16.6-35.7c-1.8-3.9-5.7-6.4-10-6.4H1224c-4.5,0-8.4,2.7-10.1,6.6l0.2-11.9
		c0.1-7.7,6.3-13.8,14-13.8h6.8c2.4,0,4.3-2,4.1-4.4c-0.1-2.2-2.1-3.9-4.3-3.9h-41.2l-6.2,15.6c-1.2,3-4.1,5-7.4,5h-105.1
		l-16.5,28.9l1.9,8.2h0l1.8,7.6l8.7,37.7c-1.2,0.3-2,1.4-2,2.7v33.9c0,4,3.3,7.3,7.3,7.3L1093.5,376.5
		C1093.5,376.5,1093.5,376.5,1093.5,376.5z"/>
	<path fill="#223A59" d="M437.5,376.5c0,14.4,11.7,26.1,26.1,26.1s26.1-11.7,26.1-26.1c0,0,0,0,0,0l91.3,0c0,0,0,0,0,0
		c0,14.4,11.7,26.1,26.1,26.1s26.1-11.7,26.1-26.1c0,0,0,0,0,0l16.3,0c7.8,0,14.1-6.3,14.1-14.1l0-23.1l0,0v0l0-24.5
		c0-4.4-2.6-8.4-6.7-10.1l-13.3-5.7l-16.6-35.7c-1.8-3.9-5.7-6.4-10-6.4H568c-6.1,0-11,4.9-11,11v-23.6c0-5.3-4.3-9.5-9.5-9.5H425
		c-5.3,0-9.5,4.3-9.5,9.5v88.1c-1.6,0-2.8,1.3-2.8,2.8v33.9c0,4,3.3,7.3,7.3,7.3L437.5,376.5C437.5,376.5,437.5,376.5,437.5,376.5z"
		/>
	<path fill="#223A59" d="M80.5,231L80.5,231l3.7,11.2c2,5.9,7.4,9.8,13.6,9.8H121c6.9,0,12.6-5.6,12.6-12.6v-21h57.3l-39.5,64.9
		c-4,2-7.2,5.3-9,9.6l-16.1,38.7h67.1L177.1,293c-0.5-1.2-1.1-2.3-1.9-3.4l35.7-58.7c8.4-0.9,14.9-8,14.9-16.7
		c0-9.3-7.5-16.8-16.8-16.8c-4.2,0-8.1,1.6-11.1,4.2h-64.4h0H70.7l7.6,22.7L80.5,231z M192.4,212.4c0-0.2,0-0.3,0.1-0.5
		C192.5,212.1,192.4,212.3,192.4,212.4z M192.7,210.6c0-0.1,0-0.2,0.1-0.2C192.8,210.5,192.7,210.6,192.7,210.6z M159.7,281.4
		c-0.4,0-0.8,0-1.3,0C158.9,281.4,159.3,281.4,159.7,281.4c0.4,0,0.9,0,1.3,0C160.6,281.4,160.1,281.4,159.7,281.4z M161.5,281.5
		c0.3,0,0.5,0.1,0.8,0.1C162,281.5,161.8,281.5,161.5,281.5z M157.2,281.5c0.2,0,0.4-0.1,0.7-0.1
		C157.7,281.5,157.5,281.5,157.2,281.5z M156.5,281.6c-0.1,0-0.2,0-0.3,0.1C156.3,281.7,156.4,281.7,156.5,281.6z M162.9,281.6
		c0.2,0,0.4,0.1,0.6,0.1C163.3,281.7,163.1,281.7,162.9,281.6z M164.2,281.9c0.1,0,0.2,0.1,0.3,0.1
		C164.4,282,164.3,281.9,164.2,281.9z M201.5,229.2c0,0,0.1,0,0.1,0.1C201.6,229.2,201.5,229.2,201.5,229.2z M202.9,229.8
		c0.1,0,0.2,0.1,0.4,0.1C203.1,229.9,203,229.9,202.9,229.8z M204.3,230.3c0.2,0.1,0.4,0.1,0.6,0.2
		C204.7,230.4,204.5,230.4,204.3,230.3z M205.8,230.7c0.3,0.1,0.6,0.1,0.9,0.1C206.4,230.8,206.1,230.8,205.8,230.7z M207.4,230.9
		c0.5,0.1,1.1,0.1,1.7,0.1C208.5,231,208,231,207.4,230.9z M209.1,231L209.1,231L209.1,231C209.1,231,209.1,231,209.1,231z
		 M192.3,213.9c0,0.1,0,0.2,0,0.3c0,0.4,0,0.8,0.1,1.3c0-0.4-0.1-0.8-0.1-1.3C192.3,214.1,192.3,214,192.3,213.9z"/>
	<path fill="#223A59" d="M323.4,304.6l-13.3-5.7l-16.6-35.7c-1.8-3.9-5.7-6.4-10-6.4h-49.1c-6.1,0-11,4.9-11,11v64.5H88.4
		c-5.1,0-9.2,4.1-9.2,9.2v27.6c0,4,3.3,7.3,7.3,7.3l17.5,0c0,0,0,0,0,0c0,14.4,11.7,26.1,26.1,26.1s26.1-11.7,26.1-26.1c0,0,0,0,0,0
		l91.3,0c0,0,0,0,0,0c0,14.4,11.7,26.1,26.1,26.1c14.4,0,26.1-11.7,26.1-26.1c0,0,0,0,0,0l16.3,0c7.8,0,14.1-6.3,14.1-14.1l0-47.6
		C330,310.3,327.4,306.4,323.4,304.6z"/>
	<path fill="#223A59" d="M1351.5,739.2l0-24.5c0-4.4-2.6-8.4-6.7-10.1l-13.3-5.7l-16.6-35.7c-1.8-3.9-5.7-6.4-10-6.4h-49.1
		c-4.2,0-7.8,2.3-9.7,5.8v-20.4c0-1.7-0.9-3.3-2.3-4.2c-1.4-0.9-3.2-1.1-4.7-0.4l-43.9,19.5h-103.5c-1.6,0-3.1,0.7-4,2
		c-0.9,1.3-1.2,2.9-0.8,4.4l13.8,58.4l-0.2,16.7c-0.1,0.4-0.1,0.7-0.1,1.1v29.4c0,4,3.3,7.3,7.3,7.3l1.5,0c0,0,0,0,0,0
		c0,14.4,11.7,26.1,26.1,26.1c14.4,0,26.1-11.7,26.1-26.1c0,0,0,0,0,0l5.7,0c0,0,0,0,0,0c0,14.4,11.7,26.1,26.1,26.1
		s26.1-11.7,26.1-26.1c0,0,0,0,0,0l63.1,0c0,0,0,0,0,0c0,14.4,11.7,26.1,26.1,26.1c14.4,0,26.1-11.7,26.1-26.1c0,0,0,0,0,0l2.6,0
		c7.8,0,14.1-6.3,14.1-14.1L1351.5,739.2L1351.5,739.2L1351.5,739.2z"/>
	<path fill="#223A59" d="M772.7,402.5c14.4,0,26.1-11.7,26.1-26.1c0,0,0,0,0,0l91.3,0c0,0,0,0,0,0c0,14.4,11.7,26.1,26.1,26.1
		c14.4,0,26.1-11.7,26.1-26.1c0,0,0,0,0,0l16.3,0c7.8,0,14.1-6.3,14.1-14.1l0-47.6c0-4.4-2.6-8.4-6.7-10.1l-13.3-5.7l-16.6-35.7
		c-1.8-3.9-5.7-6.4-10-6.4h-49.1c-6.1,0-11,4.9-11,11v34.2H733.7c-5,0-9.1,4.1-9.1,9.1v21.2c-1.6,0-2.8,1.3-2.8,2.8v33.9
		c0,4,3.3,7.3,7.3,7.3l17.5,0c0,0,0,0,0,0C746.6,390.9,758.2,402.5,772.7,402.5z"/>
</g>
<g>
	<g>
		<path fill="#E6E6E6" d="M764.7,636.1v-31c0-2.4-1.9-4.3-4.3-4.3s-4.3,1.9-4.3,4.3v34.8c0,2.4,1.9,4.3,4.3,4.3
			c4.8,0,8.7,3.9,8.7,8.7s-3.9,8.7-8.7,8.7c-4.8,0-8.7-3.9-8.7-8.7c0-2.4-1.9-4.3-4.3-4.3c-2.4,0-4.3,1.9-4.3,4.3
			c0,9.6,7.8,17.4,17.4,17.4c9.6,0,17.4-7.8,17.4-17.4C777.7,644.8,772.2,638,764.7,636.1z"/>
		<path fill="#A33D1B" d="M759.7,600.7c-3,0-4.5,3.6-2.4,5.8l111.8,116h13v-26.1l-100-95.6H759.7z"/>
		<path fill="#D1D3D6" d="M981.7,694.6l-13.3-5.7l-16.6-35.7c-1.8-3.9-5.7-6.4-10-6.4h-49.1c-6.1,0-11,4.9-11,11v64.5h-137
			c-4,0-7.3,3.3-7.3,7.3v29.4c0,4,3.3,7.3,7.3,7.3l229.4,0c7.8,0,14.1-6.3,14.1-14.1l0-47.6C988.4,700.3,985.8,696.4,981.7,694.6z"
			/>
		<path fill="#51C2E9" d="M948.2,658.8c-1-2.2-3.1-3.6-5.5-3.6H903c-3.3,0-6,2.7-6,6v24.8c0,3.3,2.7,6,6,6h50.7
			c4.4,0,7.3-4.5,5.5-8.5L948.2,658.8z"/>
		<path fill="#F9FCFF" d="M977.3,717.1v6.5c0,3.1,2.5,5.6,5.6,5.6h5.5v-17.7h-5.5C979.8,711.5,977.3,714,977.3,717.1z"/>
		<circle fill="#514B5A" cx="931.9" cy="766.5" r="26.1"/>
		<circle fill="#B2B3B3" cx="931.9" cy="766.5" r="8.7"/>
		<circle fill="#514B5A" cx="788.4" cy="766.5" r="26.1"/>
		<circle fill="#B2B3B3" cx="788.4" cy="766.5" r="8.7"/>
	</g>
	<g>
		<path fill="#0A3570" d="M467.5,579h-38.2c-2,0-3.6,1.6-3.6,3.6v35.6v39.1v31.4h0v33.8h17.4v-33.8v-7.1v-63.5l13.3-9.2l14.1-24.6
			C472,582,470.3,579,467.5,579z"/>
		<g>
			<path fill="#0A3570" d="M547,672.6c-1.2-2.1-3.8-2.9-5.9-1.7c-2.1,1.2-2.9,3.8-1.7,5.9l26.1,47.8c0.8,1.4,2.3,2.3,3.8,2.3
				c0.7,0,1.4-0.2,2.1-0.5c2.1-1.2,2.9-3.8,1.7-5.9L547,672.6z"/>
			<path fill="#0A3570" d="M478,666c-7.2,0-13,5.9-13,13v43.5h26.1V679C491.1,671.9,485.2,666,478,666z"/>
			<path fill="#98A4B5" d="M527.6,615.6c-1.1-1.1-2.5-2-4.1-2.5L490.3,602c-2.3-0.8-4.9-0.9-7.3-0.2L445.6,612
				c-4.2,1.1-7.5,4.3-8.7,8.5l-9.3,30.9c-1.1,3.7-0.4,7.7,1.8,10.9l15.9,22.3c1.5,2.1,3.5,3.6,5.9,4.5l13.7,5c0,0,0,0,0,0v-14.7
				c0-6.9,5.2-12.8,12-13.3c7.6-0.6,14.1,5.5,14.1,13v24.5c0,0,0,0,0,0l3.1,1.1c0.8,0.3,1.6,0.4,2.5,0.3l30.9-3.4
				c4.2-0.5,7.8-3.4,8.9-7.5l13.8-48.2c1-3.7,0-7.6-2.7-10.3L527.6,615.6z"/>
			<path fill="#0A3570" d="M473.9,664.5c-0.3,0.7-0.3,1.5-0.1,2.2c1.3-0.5,2.7-0.8,4.2-0.8c1.5,0,3,0.3,4.3,0.8l21.5-60.2
				c0,0,0-0.1,0-0.1l-8.2-2.7L473.9,664.5z"/>
		</g>
		<path fill="#0E4796" d="M667.7,694.6l-13.3-5.7l-16.6-35.7c-1.8-3.9-5.7-6.4-10-6.4h-49.1c-6.1,0-11,4.9-11,11v64.5H426.3
			c-1.6,0-2.8,1.3-2.8,2.8v33.9c0,4,3.3,7.3,7.3,7.3l229.4,0c7.8,0,14.1-6.3,14.1-14.1l0-47.6C674.4,700.3,671.7,696.4,667.7,694.6z
			"/>
		<path fill="#51C2E9" d="M634.2,658.8c-1-2.2-3.1-3.6-5.5-3.6h-39.7c-3.3,0-6,2.7-6,6v24.8c0,3.3,2.7,6,6,6h50.7
			c4.4,0,7.3-4.5,5.5-8.5L634.2,658.8z"/>
		<path fill="#F9FCFF" d="M663.2,717.1v6.5c0,3.1,2.5,5.6,5.6,5.6h5.5v-17.7h-5.5C665.8,711.5,663.2,714,663.2,717.1z"/>
		<circle fill="#514B5A" cx="617.8" cy="766.5" r="26.1"/>
		<circle fill="#B2B3B3" cx="617.8" cy="766.5" r="8.7"/>
		<circle fill="#514B5A" cx="474.4" cy="766.5" r="26.1"/>
		<circle fill="#B2B3B3" cx="474.4" cy="766.5" r="8.7"/>
	</g>
	<g>
		<path fill="#BF9227" d="M118.5,670.2c-7.9,0-15,4.7-18.1,12l-16.7,40.1h69.6l-16.7-40.1C133.5,674.9,126.4,670.2,118.5,670.2z"/>
		<circle fill="#E6E9EC" cx="118.5" cy="691.9" r="4.3"/>
		<circle fill="#BF9227" cx="175.3" cy="600.6" r="17.4"/>
		<path fill="#A2A1A1" d="M192.7,600.6c0,1.2,0.2,3.2,0,4.3l43.5-4.3v-26.1l-49.7,12.8C190.2,590.6,192.7,595.3,192.7,600.6z"/>
		<path fill="#A2A1A1" d="M158.1,602.2L105.4,675l0,0.1c3.5-3.1,8.1-5,13-5c6.4,0,12.3,3.2,15.9,8.2l42.9-60.6
			c-0.7,0.1-1.3,0.2-2,0.2C166.2,618,158.9,611.1,158.1,602.2z"/>
		<path fill="#BF9227" d="M257.6,570.2c3.8,0,7.4,1.2,10.4,3.5c1.9,1.4,4.7,1.1,6.1-0.9c1.4-1.9,1.1-4.6-0.9-6.1
			c-4.5-3.4-10-5.2-15.7-5.2c-14.4,0-26.1,11.7-26.1,26.1s11.7,26.1,26.1,26.1c5.7,0,11.1-1.8,15.6-5.2c1.9-1.4,2.3-4.2,0.9-6.1
			c-1.4-1.9-4.2-2.3-6.1-0.9c-3,2.3-6.6,3.5-10.4,3.5c-9.6,0-17.4-7.8-17.4-17.4S248,570.2,257.6,570.2z"/>
		<path fill="#FFC334" d="M302.7,694.6l-13.3-5.7l-16.6-35.7c-1.8-3.9-5.7-6.4-10-6.4h-49.1c-6.1,0-11,4.9-11,11v64.5H61.3
			c-1.6,0-2.8,1.3-2.8,2.8v33.9c0,4,3.3,7.3,7.3,7.3l229.4,0c7.8,0,14.1-6.3,14.1-14.1l0-47.6C309.4,700.3,306.8,696.4,302.7,694.6z
			"/>
		<path fill="#E6E9EC" d="M269.2,658.8c-1-2.2-3.1-3.6-5.5-3.6H224c-3.3,0-6,2.7-6,6v24.8c0,3.3,2.7,6,6,6h50.7
			c4.4,0,7.3-4.5,5.5-8.5L269.2,658.8z"/>
		<path fill="#F9FCFF" d="M298.3,717.1v6.5c0,3.1,2.5,5.6,5.6,5.6h5.5v-17.7h-5.5C300.8,711.5,298.3,714,298.3,717.1z"/>
		<circle fill="#514B5A" cx="252.9" cy="766.5" r="26.1"/>
		<circle fill="#B2B3B3" cx="252.9" cy="766.5" r="8.7"/>
		<circle fill="#514B5A" cx="109.4" cy="766.5" r="26.1"/>
		<circle fill="#B2B3B3" cx="109.4" cy="766.5" r="8.7"/>
	</g>
	<g>
		<path fill="#FFC334" d="M1224.8,219.5h-41.2l-6.2,15.6c-1.2,3-4.1,5-7.4,5h-105.1l-16.5,28.9l12.4,53.6H1203l1.1-81
			c0.1-7.7,6.3-13.8,14-13.8h6.8c2.4,0,4.3-2,4.1-4.4C1228.9,221.2,1227,219.5,1224.8,219.5z"/>
		<path fill="#DBA434" d="M1097.9,256.6h-42.4l-4.7,8.2h47.1c2.3,0,4.1-1.8,4.1-4.1C1102,258.5,1100.1,256.6,1097.9,256.6z"/>
		<path fill="#DBA434" d="M1118.5,277.2h-68.2l1.9,8.2h66.3c2.3,0,4.1-1.8,4.1-4.1C1122.6,279.1,1120.8,277.2,1118.5,277.2z"/>
		<path fill="#FFCC5D" d="M1302.9,294.6l-13.3-5.7l-16.6-35.7c-1.8-3.9-5.7-6.4-10-6.4H1214c-6.1,0-11,4.9-11,11v64.5h-141.5
			c-1.6,0-2.8,1.3-2.8,2.8v33.9c0,4,3.3,7.3,7.3,7.3l229.4,0c7.8,0,14.1-6.3,14.1-14.1l0-47.6C1309.6,300.3,1307,296.4,1302.9,294.6
			z"/>
		<path fill="#E6E9EC" d="M1269.4,258.8c-1-2.2-3.1-3.6-5.5-3.6h-39.7c-3.3,0-6,2.7-6,6v24.8c0,3.3,2.7,6,6,6h50.7
			c4.4,0,7.3-4.5,5.5-8.5L1269.4,258.8z"/>
		<path fill="#F9FCFF" d="M1298.5,317.1v6.5c0,3.1,2.5,5.6,5.6,5.6h5.5v-17.7h-5.5C1301,311.5,1298.5,314,1298.5,317.1z"/>
		<circle fill="#514B5A" cx="1253.1" cy="366.5" r="26.1"/>
		<circle fill="#B2B3B3" cx="1253.1" cy="366.5" r="8.7"/>
		<circle fill="#514B5A" cx="1109.6" cy="366.5" r="26.1"/>
		<circle fill="#B2B3B3" cx="1109.6" cy="366.5" r="8.7"/>
	</g>
	<g>
		<path fill="#94D7F2" d="M537.4,224.8H415c-5.3,0-9.5,4.3-9.5,9.5v88.1H547v-88.1C547,229,542.7,224.8,537.4,224.8z"/>
		<path fill="#7CB4CB" d="M646.9,294.6l-13.3-5.7l-16.6-35.7c-1.8-3.9-5.7-6.4-10-6.4H558c-6.1,0-11,4.9-11,11v64.5H405.5
			c-1.6,0-2.8,1.3-2.8,2.8v33.9c0,4,3.3,7.3,7.3,7.3l229.4,0c7.8,0,14.1-6.3,14.1-14.1l0-47.6C653.5,300.3,650.9,296.4,646.9,294.6z
			"/>
		<path fill="#E6E9EC" d="M613.4,258.8c-1-2.2-3.1-3.6-5.5-3.6h-39.7c-3.3,0-6,2.7-6,6v24.8c0,3.3,2.7,6,6,6h50.7
			c4.4,0,7.3-4.5,5.5-8.5L613.4,258.8z"/>
		<path fill="#F9FCFF" d="M642.4,317.1v6.5c0,3.1,2.5,5.6,5.6,5.6h5.5v-17.7H648C644.9,311.5,642.4,314,642.4,317.1z"/>
		<circle fill="#514B5A" cx="597" cy="366.5" r="26.1"/>
		<circle fill="#B2B3B3" cx="597" cy="366.5" r="8.7"/>
		<circle fill="#514B5A" cx="453.5" cy="366.5" r="26.1"/>
		<circle fill="#B2B3B3" cx="453.5" cy="366.5" r="8.7"/>
	</g>
	<g>
		<circle fill="#FEC24D" cx="199.1" cy="204.2" r="16.8"/>
		<path fill="#FEC24D" d="M149.7,271.4c-7.6,0-14.5,4.6-17.4,11.6l-16.1,38.7h67.1L167.1,283C164.2,275.9,157.3,271.4,149.7,271.4z"
			/>
		<circle fill="#BB8D2D" cx="149.7" cy="292.3" r="4.2"/>
		<path fill="#BB8D2D" d="M182.5,205.8l-41.2,67.6c2.6-1.3,5.4-2,8.4-2c6.3,0,12.1,3.2,15.5,8.2l35.8-58.8c-0.6,0.1-1.3,0.2-1.9,0.2
			C190.4,221,183.3,214.3,182.5,205.8z"/>
		<path fill="#FEC24D" d="M74.2,232.2c2,5.9,7.4,9.8,13.6,9.8H111c6.9,0,12.6-5.6,12.6-12.6v-37.8H60.7L74.2,232.2z"/>
		<path fill="#BB8D2D" d="M123.6,208.4h59.3c-0.3-1.3-0.6-2.7-0.6-4.2c0-5,2.3-9.5,5.8-12.6h-64.5V208.4z"/>
		<polygon fill="#BB8D2D" points="70.5,221 123.6,221 123.6,212.6 67.7,212.6 		"/>
		<path fill="#BB8D2D" d="M313.4,294.6l-13.3-5.7l-16.6-35.7c-1.8-3.9-5.7-6.4-10-6.4h-49.1c-6.1,0-11,4.9-11,11v64.5H78.4
			c-5.1,0-9.2,4.1-9.2,9.2v27.6c0,4,3.3,7.3,7.3,7.3l229.4,0c7.8,0,14.1-6.3,14.1-14.1l0-47.6C320,300.3,317.4,296.4,313.4,294.6z"
			/>
		<path fill="#51C2E9" d="M279.9,258.8c-1-2.2-3.1-3.6-5.5-3.6h-39.7c-3.3,0-6,2.7-6,6v24.8c0,3.3,2.7,6,6,6h50.7
			c4.4,0,7.3-4.5,5.5-8.5L279.9,258.8z"/>
		<path fill="#F9FCFF" d="M308.9,317.1v6.5c0,3.1,2.5,5.6,5.6,5.6h5.5v-17.7h-5.5C311.4,311.5,308.9,314,308.9,317.1z"/>
		<circle fill="#514B5A" cx="263.5" cy="366.5" r="26.1"/>
		<circle fill="#B2B3B3" cx="263.5" cy="366.5" r="8.7"/>
		<circle fill="#514B5A" cx="120.1" cy="366.5" r="26.1"/>
		<circle fill="#B2B3B3" cx="120.1" cy="366.5" r="8.7"/>
	</g>
	<g>
		<path fill="#F3D7D1" d="M1234,628.1c-1.4-0.9-3.2-1.1-4.7-0.4l-43.9,19.5h-103.5c-1.6,0-3.1,0.7-4,2c-0.9,1.3-1.2,2.9-0.8,4.4
			l13.8,58.4l-0.3,25h140.6c2.8,0,5-2.2,5-5v-99.7C1236.3,630.6,1235.4,629,1234,628.1z"/>
		<path fill="#F36E53" d="M1334.8,694.6l-13.3-5.7l-16.6-35.7c-1.8-3.9-5.7-6.4-10-6.4h-49.1c-6.1,0-11,4.9-11,11v64.5h-137
			c-4,0-7.3,3.3-7.3,7.3v29.4c0,4,3.3,7.3,7.3,7.3l229.4,0c7.8,0,14.1-6.3,14.1-14.1l0-47.6C1341.5,700.3,1338.9,696.4,1334.8,694.6
			z"/>
		<path fill="#51C2E9" d="M1301.3,658.8c-1-2.2-3.1-3.6-5.5-3.6h-39.7c-3.3,0-6,2.7-6,6v24.8c0,3.3,2.7,6,6,6h50.7
			c4.4,0,7.3-4.5,5.5-8.5L1301.3,658.8z"/>
		<path fill="#F9FCFF" d="M1330.4,717.1v6.5c0,3.1,2.5,5.6,5.6,5.6h5.5v-17.7h-5.5C1332.9,711.5,1330.4,714,1330.4,717.1z"/>
		<circle fill="#514B5A" cx="1298.7" cy="766.5" r="26.1"/>
		<circle fill="#B2B3B3" cx="1298.7" cy="766.5" r="8.7"/>
		<circle fill="#514B5A" cx="1125.5" cy="766.5" r="26.1"/>
		<circle fill="#B2B3B3" cx="1125.5" cy="766.5" r="8.7"/>
		<circle fill="#514B5A" cx="1183.4" cy="766.5" r="26.1"/>
		<circle fill="#B2B3B3" cx="1183.4" cy="766.5" r="8.7"/>
		<path fill="#C7B0AB" d="M1206.8,676.2h-100.6c-3.3,0-5.9,2.7-5.9,5.9c0,3.3,2.7,5.9,5.9,5.9h100.6c3.3,0,5.9-2.7,5.9-5.9
			C1212.8,678.9,1210.1,676.2,1206.8,676.2z"/>
	</g>
	<g>
		<path fill="#4C83C9" d="M956,294.6l-13.3-5.7l-16.6-35.7c-1.8-3.9-5.7-6.4-10-6.4h-49.1c-6.1,0-11,4.9-11,11v64.5H714.6
			c-1.6,0-2.8,1.3-2.8,2.8v33.9c0,4,3.3,7.3,7.3,7.3l229.4,0c7.8,0,14.1-6.3,14.1-14.1l0-47.6C962.6,300.3,960,296.4,956,294.6z"/>
		<path fill="#51C2E9" d="M922.5,258.8c-1-2.2-3.1-3.6-5.5-3.6h-39.7c-3.3,0-6,2.7-6,6v24.8c0,3.3,2.7,6,6,6h50.7
			c4.4,0,7.3-4.5,5.5-8.5L922.5,258.8z"/>
		<path fill="#F9FCFF" d="M951.5,317.1v6.5c0,3.1,2.5,5.6,5.6,5.6h5.5v-17.7h-5.5C954,311.5,951.5,314,951.5,317.1z"/>
		<circle fill="#514B5A" cx="906.1" cy="366.5" r="26.1"/>
		<circle fill="#B2B3B3" cx="906.1" cy="366.5" r="8.7"/>
		<circle fill="#514B5A" cx="762.7" cy="366.5" r="26.1"/>
		<circle fill="#B2B3B3" cx="762.7" cy="366.5" r="8.7"/>
		<path fill="#223A59" d="M714.6,301.2v21.2h141.5v-30.3H723.7C718.7,292.1,714.6,296.2,714.6,301.2z"/>
	</g>
</g>
</svg>
